# xmcd
#
# Track frame offsets: 
#        150
#        18283
#        39735
#        59244
#        81594
#        105205
#        127542
#        145894
#        159568
#        183683
#        201702
#        227024
#        241692
#        256164
#        274719
#        291545
#        314759
#        353839
#
# Disc length: 4796 seconds
#
# Revision: 0
# Processed by: cddbd v1.5.2PL0 Copyright (c) Steve Scherf et al.
# Submitted via: ExactAudioCopy v1.3
#
DISCID=1112ba12
DTITLE=Various Artist - Akella Presents - vol. 153 - Electric Blues  
DTITLE=CD2
DYEAR=2018
DGENRE=Blues
TTITLE0=RoosterHouse Gumbo Band - Baby Listen
TTITLE1=Kilborn Alley Blues Band - Going Hard 
TTITLE2=Duke Danger - Let The Music Play
TTITLE3=Nico Backton - Louise Blues
TTITLE4=Robin Barrett and Coyote Kings - All Eased Up
TTITLE5=Geoff Achison - Never Give It Up
TTITLE6=Chris Bergson Band - 61St and 1St
TTITLE7=Jay Willie Blues Band - Sinner's Prayer
TTITLE8=Billy Price - Never Be Fooled Again
TTITLE9=Storm Warning - The Blues are Back
TTITLE10=John Sutton Band - Been Coming for Awhile
TTITLE11=Davey and The Bluedog - Grit My Teeth
TTITLE12=Albert Cummings - Rock Me Baby
TTITLE13=Buddaheads - The More I Love Her
TTITLE14=Jimmy Carpenter - All Your Love
TTITLE15=Bernie Marsden - Day And Night
TTITLE16=Walter Trout and John Mayall - She Takes More Than She Gives
TTITLE17=Rev. Shawn Amos - Freedom Suite Uncle Tom's Prayer
EXTD=
EXTT0=
EXTT1=
EXTT2=
EXTT3=
EXTT4=
EXTT5=
EXTT6=
EXTT7=
EXTT8=
EXTT9=
EXTT10=
EXTT11=
EXTT12=
EXTT13=
EXTT14=
EXTT15=
EXTT16=
EXTT17=
PLAYORDER=
